<?xml version="1.0" encoding="UTF-8"?>
<svg width="252px" height="192px" viewBox="0 0 252 192" version="1.1" xmlns="http://www.w3.org/2000/svg" xmlns:xlink="http://www.w3.org/1999/xlink">
    <title>logo-ar copy</title>
    <defs>
        <filter id="filter-1">
            <feColorMatrix in="SourceGraphic" type="matrix" values="0 0 0 0 1.000000 0 0 0 0 1.000000 0 0 0 0 1.000000 0 0 0 1.000000 0"></feColorMatrix>
        </filter>
    </defs>
    <g id="Page-1" stroke="none" stroke-width="1" fill="none" fill-rule="evenodd">
        <g id="logo-ar-copy" transform="translate(-1499.000000, -71.000000)" filter="url(#filter-1)">
            <g transform="translate(1499.000000, 71.000000)">
                <g id="Group" transform="translate(72.000000, 0.000000)" fill="#5C6BBF" fill-rule="nonzero">
                    <path d="M99.173913,0 L78.826087,0 C74.5423341,0 71,3.44868035 71,7.80058651 L71,48.1994135 L71,56 L78.826087,56 L99.173913,56 C103.457666,56 107,52.5513196 107,48.1994135 L107,7.80058651 C106.91762,3.44868035 103.457666,0 99.173913,0 Z" id="Path"></path>
                    <path d="M99.173913,71 L78.826087,71 L71,71 L71,78.8635347 L71,100.136465 C71,104.440716 74.4599542,108 78.826087,108 L99.173913,108 C103.457666,108 107,104.52349 107,100.136465 L107,78.7807606 C106.91762,74.4765101 103.457666,71 99.173913,71 Z" id="Path"></path>
                    <path d="M48.1994135,71.0825893 L7.80058651,71.0825893 C3.53079179,71.0825893 0,74.5513393 0,78.9285714 L0,100.154018 C0,104.448661 3.44868035,108 7.80058651,108 L48.1994135,108 C52.4692082,108 56,104.53125 56,100.154018 L56,78.8459821 L56,71 L48.1994135,71 L48.1994135,71.0825893 Z" id="Path"></path>
                    <path d="M51.1517422,0.614817346 C48.275657,-0.617790577 44.9065287,0.0396003152 42.6878344,2.25829458 L2.25829458,42.7700083 C0.0396003152,44.9887026 -0.617790577,48.3578309 0.614817346,51.233916 C1.84742527,54.1100012 4.64133656,56 7.7639433,56 L48.1934832,56 L56,56 L56,48.1934832 L56,7.84611716 C56,4.64133656 54.1100012,1.84742527 51.1517422,0.614817346 Z" id="Path"></path>
                </g>
                <g id="Group" transform="translate(0.000000, 124.000000)" fill="#5C6BBF" fill-rule="nonzero">
                    <path d="M236.556522,16.6338462 C227.582609,16.6338462 221.321739,23.1723077 221.321739,32.5876923 C221.321739,35.6738462 222.052174,38.6553846 223.46087,41.1138462 L223.930435,41.8984615 L209.269565,41.8984615 L211.304348,36.5630769 C211.721739,35.1507692 211.721739,34 211.721739,32.5876923 C211.721739,23.2246154 205.46087,16.6338462 196.486957,16.6338462 C187.513043,16.6338462 181.252174,23.1723077 181.252174,32.5876923 C181.252174,41.5323077 186.886957,47.8615385 195.33913,48.3846154 L195.86087,48.4369231 L199.356522,48.4369231 L194.556522,60.7815385 L196.852174,60.7815385 C199.982609,60.7815385 202.852174,58.7938462 204,55.8646154 L206.817391,48.4369231 L238.069565,48.4369231 L238.069565,48.3846154 L238.53913,48.3323077 C246.469565,47.4430769 251.843478,41.1138462 251.843478,32.5876923 C251.791304,23.1723077 245.530435,16.6338462 236.556522,16.6338462 Z M204,36.4584615 L203.843478,36.8246154 L201.913043,41.8461538 L196.486957,41.8461538 C191.791304,41.8461538 188.243478,37.8184615 188.243478,32.5353846 C188.243478,27.0953846 191.73913,23.1723077 196.53913,23.1723077 C201.130435,23.1723077 204.469565,26.9384615 204.782609,32.4830769 C204.834783,33.7907692 204.208696,35.8830769 204,36.4584615 Z M236.556522,41.8461538 C231.808696,41.8461538 228.26087,37.8184615 228.26087,32.5353846 C228.26087,27.0953846 231.756522,23.1723077 236.556522,23.1723077 C241.356522,23.1723077 244.8,27.0953846 244.8,32.5353846 C244.8,37.8707692 241.304348,41.8461538 236.556522,41.8461538 Z" id="Shape"></path>
                    <path d="M237.130435,9.78153846 C239.73913,9.78153846 241.878261,7.68923077 241.878261,5.12615385 C241.878261,2.61538462 239.73913,0.470769231 237.130435,0.470769231 C234.521739,0.470769231 232.382609,2.56307692 232.382609,5.12615385 C232.434783,7.68923077 234.521739,9.78153846 237.130435,9.78153846 Z" id="Path"></path>
                    <path d="M139.721739,54.7661538 C137.113043,54.7661538 134.973913,56.8584615 134.973913,59.4215385 C134.973913,61.9846154 137.113043,64.0769231 139.721739,64.0769231 C142.330435,64.0769231 144.469565,61.9846154 144.469565,59.4215385 C144.469565,56.9107692 142.278261,54.7661538 139.721739,54.7661538 Z" id="Path"></path>
                    <path d="M24.626087,58.6892308 C22.0173913,58.6892308 19.8782609,60.7815385 19.8782609,63.3446154 C19.8782609,65.9076923 22.0173913,68 24.626087,68 C27.2347826,68 29.373913,65.9076923 29.373913,63.3446154 C29.3217391,60.8338462 27.1826087,58.6892308 24.626087,58.6892308 Z" id="Path"></path>
                    <path d="M11.7391304,58.6892308 C9.13043478,58.6892308 6.99130435,60.7815385 6.99130435,63.3446154 C6.99130435,65.9076923 9.13043478,68 11.7391304,68 C14.3478261,68 16.4869565,65.9076923 16.4869565,63.3446154 C16.4347826,60.8338462 14.2956522,58.6892308 11.7391304,58.6892308 Z" id="Path"></path>
                    <path d="M174.052174,54.2430769 L174.052174,19.3015385 L166.643478,19.3015385 L166.643478,60.3630769 L167.947826,60.3630769 C171.33913,60.4153846 174.052174,57.6430769 174.052174,54.2430769 Z" id="Path"></path>
                    <path d="M80.0347826,47.8615385 L81.3391304,47.8615385 L81.3391304,3.92307692 L73.9304348,3.92307692 L73.9304348,41.6892308 C73.9304348,45.1415385 76.6956522,47.8615385 80.0347826,47.8615385 Z" id="Path"></path>
                    <path d="M58.1217391,10.0953846 L58.1217391,41.8461538 L47.8956522,41.8461538 L47.8956522,16.6338462 L37.826087,16.6338462 C29.1652174,16.6338462 24.7826087,21.4984615 24.7304348,31.1230769 L24.7304348,45.7692308 L13.9826087,45.7692308 C9.28695652,45.7692308 7.2,43.3630769 7.14782609,37.8707692 L7.14782609,26.8338462 L0.208695652,26.8338462 L0.208695652,37.8707692 C0.208695652,47.3384615 5.00869565,52.36 13.9826087,52.36 L31.7217391,52.36 L31.7217391,31.0707692 C31.7217391,26.1015385 32.7130435,23.1723077 37.826087,23.1723077 L40.9043478,23.1723077 L40.9043478,48.3846154 L65.5304348,48.3846154 L65.5304348,3.92307692 L64.226087,3.92307692 C60.8869565,3.92307692 58.1217391,6.69538462 58.1217391,10.0953846 Z" id="Path"></path>
                    <path d="M141.652174,16.6338462 C134.4,16.6338462 128.869565,20.8707692 127.043478,27.7230769 L133.773913,29.5538462 C134.817391,25.6830769 137.843478,23.2246154 141.652174,23.2246154 C146.4,23.2246154 149.895652,27.1476923 149.895652,32.5353846 L149.895652,41.8461538 L117.652174,41.8461538 L119.686957,36.5107692 C120.104348,35.0984615 120.104348,33.9476923 120.104348,32.5353846 C120.104348,23.1723077 113.843478,16.5815385 104.869565,16.5815385 C95.8956522,16.5815385 89.6347826,23.12 89.6347826,32.5353846 C89.6347826,41.8984615 95.8956522,48.3846154 104.869565,48.3846154 L107.73913,48.3846154 L102.93913,60.7292308 L105.234783,60.7292308 C108.365217,60.7292308 111.234783,58.7415385 112.382609,55.8123077 L115.2,48.3846154 L156.93913,48.3846154 L156.93913,32.5353846 C156.886957,23.1723077 150.626087,16.6338462 141.652174,16.6338462 Z M112.382609,36.4584615 L112.226087,36.8246154 L110.295652,41.8461538 L104.869565,41.8461538 C100.173913,41.8461538 96.573913,37.8184615 96.573913,32.5353846 C96.573913,27.0953846 100.069565,23.1723077 104.869565,23.1723077 C109.46087,23.1723077 112.8,26.9384615 113.113043,32.4830769 C113.217391,33.7907692 112.591304,35.8830769 112.382609,36.4584615 Z" id="Shape"></path>
                </g>
            </g>
        </g>
    </g>
</svg>