<svg xmlns="http://www.w3.org/2000/svg" width="129.9" height="130.948" viewBox="0 0 129.9 130.948">
  <g id="Group" transform="translate(0 -0.952)">
    <path id="Path" d="M120.4,1H95.7a9.5,9.5,0,0,0-9.5,9.5V69.2h34.2a9.5,9.5,0,0,0,9.5-9.5V10.5A9.56,9.56,0,0,0,120.4,1Z" fill="#5c6bbf"/>
    <path id="Path-2" data-name="Path" d="M120.4,87.2H86.2v35.2a9.5,9.5,0,0,0,9.5,9.5h24.7a9.5,9.5,0,0,0,9.5-9.5V96.6A9.54,9.54,0,0,0,120.4,87.2Z" fill="#ffa727"/>
    <path id="Path-3" data-name="Path" d="M58.7,87.2H9.5A9.5,9.5,0,0,0,0,96.7v25.7a9.5,9.5,0,0,0,9.5,9.5H58.7a9.5,9.5,0,0,0,9.5-9.5V87.1H58.7Z" fill="#ef5350"/>
    <path id="Path-4" data-name="Path" d="M62.3,1.7A9.385,9.385,0,0,0,52,3.7L2.8,53a9.385,9.385,0,0,0-2,10.3,9.487,9.487,0,0,0,8.7,5.8H68.2V10.5A9.459,9.459,0,0,0,62.3,1.7Z" fill="#25c6da"/>
  </g>
</svg>
