<svg xmlns="http://www.w3.org/2000/svg" width="482.3" height="129.1" viewBox="0 0 482.3 129.1">
  <g id="Group" transform="translate(-0.4 -0.9)">
    <path id="Shape" d="M453.4,31.8c-17.2,0-29.2,12.5-29.2,30.5a32.877,32.877,0,0,0,4.1,16.3l.9,1.5H401.1L405,69.9a24.616,24.616,0,0,0,.8-7.6c0-17.9-12-30.5-29.2-30.5s-29.2,12.5-29.2,30.5c0,17.1,10.8,29.2,27,30.2l1,.1h6.7l-9.2,23.6h4.4a14.866,14.866,0,0,0,13.7-9.4l5.4-14.2h59.9v-.1l.9-.1c15.2-1.7,25.5-13.8,25.5-30.1C482.6,44.3,470.6,31.8,453.4,31.8ZM391,69.7l-.3.7L387,80H376.6c-9,0-15.8-7.7-15.8-17.8,0-10.4,6.7-17.9,15.9-17.9,8.8,0,15.2,7.2,15.8,17.8A26.01,26.01,0,0,1,391,69.7ZM453.4,80c-9.1,0-15.9-7.7-15.9-17.8,0-10.4,6.7-17.9,15.9-17.9s15.8,7.5,15.8,17.9C469.2,72.4,462.5,80,453.4,80Z" fill="#2b2b3d"/>
    <path id="Path" d="M454.5,18.7a9.028,9.028,0,0,0,9.1-8.9,9.1,9.1,0,0,0-18.2,0A9.093,9.093,0,0,0,454.5,18.7Z" fill="#2b2b3d"/>
    <path id="Path-2" data-name="Path" d="M267.8,104.7a8.9,8.9,0,1,0,9.1,8.9A9.161,9.161,0,0,0,267.8,104.7Z" fill="#2b2b3d"/>
    <path id="Path-3" data-name="Path" d="M47.2,112.2a8.9,8.9,0,1,0,9.1,8.9A9.229,9.229,0,0,0,47.2,112.2Z" fill="#2b2b3d"/>
    <path id="Path-4" data-name="Path" d="M22.5,112.2a8.9,8.9,0,1,0,9.1,8.9A9.229,9.229,0,0,0,22.5,112.2Z" fill="#2b2b3d"/>
    <path id="Path-5" data-name="Path" d="M333.6,103.7V36.9H319.4v78.5h2.5A11.589,11.589,0,0,0,333.6,103.7Z" fill="#2b2b3d"/>
    <path id="Path-6" data-name="Path" d="M153.4,91.5h2.5V7.5H141.7V79.7A11.737,11.737,0,0,0,153.4,91.5Z" fill="#2b2b3d"/>
    <path id="Path-7" data-name="Path" d="M111.4,19.3V80H91.8V31.8H72.5c-16.6,0-25,9.3-25.1,27.7v28H26.8c-9,0-13-4.6-13.1-15.1V51.3H.4V72.4c0,18.1,9.2,27.7,26.4,27.7h34V59.4c0-9.5,1.9-15.1,11.7-15.1h5.9V92.5h47.2V7.5h-2.5A11.8,11.8,0,0,0,111.4,19.3Z" fill="#2b2b3d"/>
    <path id="Shape-2" data-name="Shape" d="M271.5,31.8c-13.9,0-24.5,8.1-28,21.2l12.9,3.5c2-7.4,7.8-12.1,15.1-12.1,9.1,0,15.8,7.5,15.8,17.8V80H225.5l3.9-10.2a24.615,24.615,0,0,0,.8-7.6c0-17.9-12-30.5-29.2-30.5s-29.2,12.5-29.2,30.5c0,17.9,12,30.3,29.2,30.3h5.5l-9.2,23.6h4.4a14.866,14.866,0,0,0,13.7-9.4l5.4-14.2h80V62.2C300.7,44.3,288.7,31.8,271.5,31.8ZM215.4,69.7l-.3.7L211.4,80H201c-9,0-15.9-7.7-15.9-17.8,0-10.4,6.7-17.9,15.9-17.9,8.8,0,15.2,7.2,15.8,17.8C217,64.6,215.8,68.6,215.4,69.7Z" fill="#2b2b3d"/>
  </g>
</svg>
