<?xml version="1.0" encoding="UTF-8"?>
<svg width="651px" height="146px" viewBox="0 0 651 146" version="1.1" xmlns="http://www.w3.org/2000/svg" xmlns:xlink="http://www.w3.org/1999/xlink">
    <title>logo-ar</title>
    <g id="Page-1" stroke="none" stroke-width="1" fill="none" fill-rule="evenodd">
        <g id="logo-ar" fill-rule="nonzero">
            <g id="Group" transform="translate(521.000000, 0.000000)">
                <path d="M120.4,1 L95.7,1 C90.5,1 86.2,5.2 86.2,10.5 L86.2,59.7 L86.2,69.2 L95.7,69.2 L120.4,69.2 C125.6,69.2 129.9,65 129.9,59.7 L129.9,10.5 C129.8,5.2 125.6,1 120.4,1 Z" id="Path" fill="#5C6BBF"></path>
                <path d="M120.4,87.2 L95.7,87.2 L86.2,87.2 L86.2,96.7 L86.2,122.4 C86.2,127.6 90.4,131.9 95.7,131.9 L120.4,131.9 C125.6,131.9 129.9,127.7 129.9,122.4 L129.9,96.6 C129.8,91.4 125.6,87.2 120.4,87.2 Z" id="Path" fill="#FFA727"></path>
                <path d="M58.7,87.2 L9.5,87.2 C4.3,87.2 0,91.4 0,96.7 L0,122.4 C0,127.6 4.2,131.9 9.5,131.9 L58.7,131.9 C63.9,131.9 68.2,127.7 68.2,122.4 L68.2,96.6 L68.2,87.1 L58.7,87.1 L58.7,87.2 Z" id="Path" fill="#EF5350"></path>
                <path d="M62.3,1.7 C58.8,0.2 54.7,1 52,3.7 L2.8,53 C0.1,55.7 -0.7,59.8 0.8,63.3 C2.3,66.8 5.7,69.1 9.5,69.1 L58.7,69.1 L68.2,69.1 L68.2,59.6 L68.2,10.5 C68.2,6.6 65.9,3.2 62.3,1.7 Z" id="Path" fill="#25C6DA"></path>
            </g>
        </g>
    </g>
</svg>